<svg width="666" height="126" viewBox="0 0 666 126" fill="none" xmlns="http://www.w3.org/2000/svg">
<path d="M164.818 86.6591C161.136 86.6591 157.977 85.9015 155.341 84.3864C152.72 82.8712 150.705 80.7652 149.295 78.0682C147.886 75.3561 147.182 72.2197 147.182 68.6591C147.182 65.0833 147.886 61.947 149.295 59.25C150.72 56.5379 152.742 54.4242 155.364 52.9091C158 51.3939 161.144 50.6364 164.795 50.6364C168.023 50.6364 170.833 51.2197 173.227 52.3864C175.636 53.553 177.515 55.2045 178.864 57.3409C180.227 59.4621 180.947 61.9545 181.023 64.8182H170.636C170.424 63.0303 169.818 61.6288 168.818 60.6136C167.833 59.5985 166.545 59.0909 164.955 59.0909C163.667 59.0909 162.538 59.4545 161.568 60.1818C160.598 60.8939 159.841 61.9545 159.295 63.3636C158.765 64.7576 158.5 66.4848 158.5 68.5455C158.5 70.6061 158.765 72.3485 159.295 73.7727C159.841 75.1818 160.598 76.25 161.568 76.9773C162.538 77.6894 163.667 78.0455 164.955 78.0455C165.985 78.0455 166.894 77.8258 167.682 77.3864C168.485 76.947 169.144 76.303 169.659 75.4545C170.174 74.5909 170.5 73.5455 170.636 72.3182H181.023C180.917 75.197 180.197 77.7121 178.864 79.8636C177.545 82.0152 175.689 83.6894 173.295 84.8864C170.917 86.0682 168.091 86.6591 164.818 86.6591ZM186.71 86V51.0909H197.506V57.4545H197.869C198.506 55.1515 199.544 53.4394 200.983 52.3182C202.422 51.1818 204.097 50.6136 206.006 50.6136C206.521 50.6136 207.051 50.6515 207.597 50.7273C208.142 50.7879 208.65 50.8864 209.119 51.0227V60.6818C208.589 60.5 207.892 60.3561 207.028 60.25C206.18 60.1439 205.422 60.0909 204.756 60.0909C203.438 60.0909 202.248 60.3864 201.188 60.9773C200.142 61.553 199.316 62.3636 198.71 63.4091C198.119 64.4394 197.824 65.6515 197.824 67.0455V86H186.71ZM228.153 86.6591C224.502 86.6591 221.35 85.9394 218.699 84.5C216.063 83.0455 214.032 80.9773 212.608 78.2955C211.199 75.5985 210.494 72.3939 210.494 68.6818C210.494 65.0758 211.206 61.9242 212.631 59.2273C214.055 56.5152 216.062 54.4091 218.653 52.9091C221.244 51.3939 224.297 50.6364 227.812 50.6364C230.297 50.6364 232.57 51.0227 234.631 51.7955C236.691 52.5682 238.472 53.7121 239.972 55.2273C241.472 56.7424 242.638 58.6136 243.472 60.8409C244.305 63.053 244.722 65.5909 244.722 68.4545V71.2273H214.381V64.7727H234.381C234.366 63.5909 234.085 62.5379 233.54 61.6136C232.994 60.6894 232.244 59.9697 231.29 59.4545C230.35 58.9242 229.267 58.6591 228.04 58.6591C226.797 58.6591 225.684 58.9394 224.699 59.5C223.714 60.0455 222.934 60.7955 222.358 61.75C221.782 62.6894 221.479 63.7576 221.449 64.9545V71.5227C221.449 72.947 221.729 74.197 222.29 75.2727C222.85 76.3333 223.646 77.1591 224.676 77.75C225.706 78.3409 226.934 78.6364 228.358 78.6364C229.343 78.6364 230.237 78.5 231.04 78.2273C231.843 77.9545 232.532 77.553 233.108 77.0227C233.684 76.4924 234.116 75.8409 234.403 75.0682L244.608 75.3636C244.184 77.6515 243.252 79.6439 241.812 81.3409C240.388 83.0227 238.517 84.3333 236.199 85.2727C233.881 86.197 231.199 86.6591 228.153 86.6591ZM260.239 86.5909C258.011 86.5909 256.034 86.2197 254.307 85.4773C252.595 84.7197 251.239 83.5833 250.239 82.0682C249.254 80.5379 248.761 78.6212 248.761 76.3182C248.761 74.3788 249.102 72.7424 249.784 71.4091C250.466 70.0758 251.405 68.9924 252.602 68.1591C253.799 67.3258 255.178 66.697 256.739 66.2727C258.299 65.8333 259.966 65.5379 261.739 65.3864C263.723 65.2045 265.322 65.0152 266.534 64.8182C267.746 64.6061 268.625 64.3106 269.17 63.9318C269.731 63.5379 270.011 62.9848 270.011 62.2727V62.1591C270.011 60.9924 269.61 60.0909 268.807 59.4545C268.004 58.8182 266.92 58.5 265.557 58.5C264.087 58.5 262.905 58.8182 262.011 59.4545C261.117 60.0909 260.549 60.9697 260.307 62.0909L250.057 61.7273C250.36 59.6061 251.14 57.7121 252.398 56.0455C253.67 54.3636 255.413 53.0455 257.625 52.0909C259.852 51.1212 262.527 50.6364 265.648 50.6364C267.875 50.6364 269.928 50.9015 271.807 51.4318C273.686 51.947 275.322 52.7045 276.716 53.7045C278.11 54.6894 279.186 55.9015 279.943 57.3409C280.716 58.7803 281.102 60.4242 281.102 62.2727V86H270.648V81.1364H270.375C269.754 82.3182 268.958 83.3182 267.989 84.1364C267.034 84.9545 265.905 85.5682 264.602 85.9773C263.314 86.3864 261.86 86.5909 260.239 86.5909ZM263.67 79.3182C264.867 79.3182 265.943 79.0758 266.898 78.5909C267.867 78.1061 268.64 77.4394 269.216 76.5909C269.792 75.7273 270.08 74.7273 270.08 73.5909V70.2727C269.761 70.4394 269.375 70.5909 268.92 70.7273C268.481 70.8636 267.996 70.9924 267.466 71.1136C266.936 71.2348 266.39 71.3409 265.83 71.4318C265.269 71.5227 264.731 71.6061 264.216 71.6818C263.17 71.8485 262.277 72.1061 261.534 72.4545C260.807 72.803 260.246 73.2576 259.852 73.8182C259.473 74.3636 259.284 75.0152 259.284 75.7727C259.284 76.9242 259.693 77.803 260.511 78.4091C261.345 79.0152 262.398 79.3182 263.67 79.3182ZM307.602 51.0909V59.2727H285.58V51.0909H307.602ZM290.193 42.7273H301.307V75.0227C301.307 75.7045 301.413 76.2576 301.625 76.6818C301.852 77.0909 302.178 77.3864 302.602 77.5682C303.027 77.7348 303.534 77.8182 304.125 77.8182C304.549 77.8182 304.996 77.7803 305.466 77.7045C305.951 77.6136 306.314 77.5379 306.557 77.4773L308.239 85.5C307.708 85.6515 306.958 85.8409 305.989 86.0682C305.034 86.2955 303.89 86.4394 302.557 86.5C299.951 86.6212 297.716 86.3182 295.852 85.5909C294.004 84.8485 292.587 83.697 291.602 82.1364C290.633 80.5758 290.163 78.6136 290.193 76.25V42.7273ZM313.273 86V51.0909H324.386V86H313.273ZM318.841 47.0227C317.28 47.0227 315.939 46.5076 314.818 45.4773C313.697 44.4318 313.136 43.1742 313.136 41.7045C313.136 40.25 313.697 39.0076 314.818 37.9773C315.939 36.9318 317.28 36.4091 318.841 36.4091C320.417 36.4091 321.758 36.9318 322.864 37.9773C323.985 39.0076 324.545 40.25 324.545 41.7045C324.545 43.1742 323.985 44.4318 322.864 45.4773C321.758 46.5076 320.417 47.0227 318.841 47.0227ZM365.324 51.0909L353.347 86H340.619L328.665 51.0909H340.369L346.801 75.1364H347.165L353.619 51.0909H365.324ZM384.778 86.6591C381.127 86.6591 377.975 85.9394 375.324 84.5C372.688 83.0455 370.657 80.9773 369.233 78.2955C367.824 75.5985 367.119 72.3939 367.119 68.6818C367.119 65.0758 367.831 61.9242 369.256 59.2273C370.68 56.5152 372.688 54.4091 375.278 52.9091C377.869 51.3939 380.922 50.6364 384.438 50.6364C386.922 50.6364 389.195 51.0227 391.256 51.7955C393.316 52.5682 395.097 53.7121 396.597 55.2273C398.097 56.7424 399.263 58.6136 400.097 60.8409C400.93 63.053 401.347 65.5909 401.347 68.4545V71.2273H371.006V64.7727H391.006C390.991 63.5909 390.71 62.5379 390.165 61.6136C389.619 60.6894 388.869 59.9697 387.915 59.4545C386.975 58.9242 385.892 58.6591 384.665 58.6591C383.422 58.6591 382.309 58.9394 381.324 59.5C380.339 60.0455 379.559 60.7955 378.983 61.75C378.407 62.6894 378.104 63.7576 378.074 64.9545V71.5227C378.074 72.947 378.354 74.197 378.915 75.2727C379.475 76.3333 380.271 77.1591 381.301 77.75C382.331 78.3409 383.559 78.6364 384.983 78.6364C385.968 78.6364 386.862 78.5 387.665 78.2273C388.468 77.9545 389.157 77.553 389.733 77.0227C390.309 76.4924 390.741 75.8409 391.028 75.0682L401.233 75.3636C400.809 77.6515 399.877 79.6439 398.438 81.3409C397.013 83.0227 395.142 84.3333 392.824 85.2727C390.506 86.197 387.824 86.6591 384.778 86.6591ZM413.17 86L404.08 51.0909H415.239L419.943 73.4545H420.239L425.284 51.0909H436.17L441.352 73.2955H441.648L446.216 51.0909H457.375L448.261 86H436.375L430.92 65.6591H430.534L425.08 86H413.17ZM461.835 86V51.0909H472.631V57.4545H472.994C473.631 55.1515 474.669 53.4394 476.108 52.3182C477.547 51.1818 479.222 50.6136 481.131 50.6136C481.646 50.6136 482.176 50.6515 482.722 50.7273C483.267 50.7879 483.775 50.8864 484.244 51.0227V60.6818C483.714 60.5 483.017 60.3561 482.153 60.25C481.305 60.1439 480.547 60.0909 479.881 60.0909C478.563 60.0909 477.373 60.3864 476.312 60.9773C475.267 61.553 474.441 62.3636 473.835 63.4091C473.244 64.4394 472.949 65.6515 472.949 67.0455V86H461.835ZM488.773 86V51.0909H499.886V86H488.773ZM494.341 47.0227C492.78 47.0227 491.439 46.5076 490.318 45.4773C489.197 44.4318 488.636 43.1742 488.636 41.7045C488.636 40.25 489.197 39.0076 490.318 37.9773C491.439 36.9318 492.78 36.4091 494.341 36.4091C495.917 36.4091 497.258 36.9318 498.364 37.9773C499.485 39.0076 500.045 40.25 500.045 41.7045C500.045 43.1742 499.485 44.4318 498.364 45.4773C497.258 46.5076 495.917 47.0227 494.341 47.0227ZM526.665 51.0909V59.2727H504.642V51.0909H526.665ZM509.256 42.7273H520.369V75.0227C520.369 75.7045 520.475 76.2576 520.688 76.6818C520.915 77.0909 521.241 77.3864 521.665 77.5682C522.089 77.7348 522.597 77.8182 523.188 77.8182C523.612 77.8182 524.059 77.7803 524.528 77.7045C525.013 77.6136 525.377 77.5379 525.619 77.4773L527.301 85.5C526.771 85.6515 526.021 85.8409 525.051 86.0682C524.097 86.2955 522.953 86.4394 521.619 86.5C519.013 86.6212 516.778 86.3182 514.915 85.5909C513.066 84.8485 511.65 83.697 510.665 82.1364C509.695 80.5758 509.225 78.6136 509.256 76.25V42.7273ZM548.278 86.6591C544.627 86.6591 541.475 85.9394 538.824 84.5C536.188 83.0455 534.157 80.9773 532.733 78.2955C531.324 75.5985 530.619 72.3939 530.619 68.6818C530.619 65.0758 531.331 61.9242 532.756 59.2273C534.18 56.5152 536.188 54.4091 538.778 52.9091C541.369 51.3939 544.422 50.6364 547.938 50.6364C550.422 50.6364 552.695 51.0227 554.756 51.7955C556.816 52.5682 558.597 53.7121 560.097 55.2273C561.597 56.7424 562.763 58.6136 563.597 60.8409C564.43 63.053 564.847 65.5909 564.847 68.4545V71.2273H534.506V64.7727H554.506C554.491 63.5909 554.21 62.5379 553.665 61.6136C553.119 60.6894 552.369 59.9697 551.415 59.4545C550.475 58.9242 549.392 58.6591 548.165 58.6591C546.922 58.6591 545.809 58.9394 544.824 59.5C543.839 60.0455 543.059 60.7955 542.483 61.75C541.907 62.6894 541.604 63.7576 541.574 64.9545V71.5227C541.574 72.947 541.854 74.197 542.415 75.2727C542.975 76.3333 543.771 77.1591 544.801 77.75C545.831 78.3409 547.059 78.6364 548.483 78.6364C549.468 78.6364 550.362 78.5 551.165 78.2273C551.968 77.9545 552.657 77.553 553.233 77.0227C553.809 76.4924 554.241 75.8409 554.528 75.0682L564.733 75.3636C564.309 77.6515 563.377 79.6439 561.938 81.3409C560.513 83.0227 558.642 84.3333 556.324 85.2727C554.006 86.197 551.324 86.6591 548.278 86.6591ZM570.523 86V51.0909H581.318V57.4545H581.682C582.318 55.1515 583.356 53.4394 584.795 52.3182C586.235 51.1818 587.909 50.6136 589.818 50.6136C590.333 50.6136 590.864 50.6515 591.409 50.7273C591.955 50.7879 592.462 50.8864 592.932 51.0227V60.6818C592.402 60.5 591.705 60.3561 590.841 60.25C589.992 60.1439 589.235 60.0909 588.568 60.0909C587.25 60.0909 586.061 60.3864 585 60.9773C583.955 61.553 583.129 62.3636 582.523 63.4091C581.932 64.4394 581.636 65.6515 581.636 67.0455V86H570.523ZM599.71 86.6591C598.074 86.6591 596.672 86.0833 595.506 84.9318C594.354 83.7803 593.786 82.3864 593.801 80.75C593.786 79.1439 594.354 77.7727 595.506 76.6364C596.672 75.4848 598.074 74.9091 599.71 74.9091C601.256 74.9091 602.619 75.4848 603.801 76.6364C604.998 77.7727 605.604 79.1439 605.619 80.75C605.604 81.8409 605.316 82.8333 604.756 83.7273C604.21 84.6212 603.491 85.3333 602.597 85.8636C601.718 86.3939 600.756 86.6591 599.71 86.6591ZM622.801 86.5909C620.574 86.5909 618.597 86.2197 616.869 85.4773C615.157 84.7197 613.801 83.5833 612.801 82.0682C611.816 80.5379 611.324 78.6212 611.324 76.3182C611.324 74.3788 611.665 72.7424 612.347 71.4091C613.028 70.0758 613.968 68.9924 615.165 68.1591C616.362 67.3258 617.741 66.697 619.301 66.2727C620.862 65.8333 622.528 65.5379 624.301 65.3864C626.286 65.2045 627.884 65.0152 629.097 64.8182C630.309 64.6061 631.188 64.3106 631.733 63.9318C632.294 63.5379 632.574 62.9848 632.574 62.2727V62.1591C632.574 60.9924 632.172 60.0909 631.369 59.4545C630.566 58.8182 629.483 58.5 628.119 58.5C626.65 58.5 625.468 58.8182 624.574 59.4545C623.68 60.0909 623.112 60.9697 622.869 62.0909L612.619 61.7273C612.922 59.6061 613.703 57.7121 614.96 56.0455C616.233 54.3636 617.975 53.0455 620.188 52.0909C622.415 51.1212 625.089 50.6364 628.21 50.6364C630.438 50.6364 632.491 50.9015 634.369 51.4318C636.248 51.947 637.884 52.7045 639.278 53.7045C640.672 54.6894 641.748 55.9015 642.506 57.3409C643.278 58.7803 643.665 60.4242 643.665 62.2727V86H633.21V81.1364H632.938C632.316 82.3182 631.521 83.3182 630.551 84.1364C629.597 84.9545 628.468 85.5682 627.165 85.9773C625.877 86.3864 624.422 86.5909 622.801 86.5909ZM626.233 79.3182C627.43 79.3182 628.506 79.0758 629.46 78.5909C630.43 78.1061 631.203 77.4394 631.778 76.5909C632.354 75.7273 632.642 74.7273 632.642 73.5909V70.2727C632.324 70.4394 631.938 70.5909 631.483 70.7273C631.044 70.8636 630.559 70.9924 630.028 71.1136C629.498 71.2348 628.953 71.3409 628.392 71.4318C627.831 71.5227 627.294 71.6061 626.778 71.6818C625.733 71.8485 624.839 72.1061 624.097 72.4545C623.369 72.803 622.809 73.2576 622.415 73.8182C622.036 74.3636 621.847 75.0152 621.847 75.7727C621.847 76.9242 622.256 77.803 623.074 78.4091C623.907 79.0152 624.96 79.3182 626.233 79.3182ZM650.46 86V51.0909H661.574V86H650.46ZM656.028 47.0227C654.468 47.0227 653.127 46.5076 652.006 45.4773C650.884 44.4318 650.324 43.1742 650.324 41.7045C650.324 40.25 650.884 39.0076 652.006 37.9773C653.127 36.9318 654.468 36.4091 656.028 36.4091C657.604 36.4091 658.945 36.9318 660.051 37.9773C661.172 39.0076 661.733 40.25 661.733 41.7045C661.733 43.1742 661.172 44.4318 660.051 45.4773C658.945 46.5076 657.604 47.0227 656.028 47.0227Z" fill="#2E72D2"/>
<path d="M106.846 34.3022L56.2676 6.08217C56.1761 6.03115 56.0647 6.0315 55.9736 6.08312L6.15215 34.3018C6.05812 34.3551 6 34.4548 6 34.5629V91.3665C6 91.4752 6.05878 91.5754 6.15365 91.6284L55.975 119.471C56.0654 119.521 56.1754 119.522 56.2661 119.472L106.845 91.628C106.94 91.5753 107 91.4746 107 91.3652V34.5642C107 34.4554 106.941 34.3552 106.846 34.3022Z" fill="white" stroke="black" stroke-width="11"/>
<circle cx="53.7292" cy="67.1558" r="19.4581" stroke="#2E72D2" stroke-width="11"/>
<path d="M83.9376 78.5507V46.4344V44.248C83.9376 44.0823 83.799 43.9477 83.6333 43.9506C75.2476 44.0981 73.1387 50.3398 73.1387 53.4793V90.0613C73.1387 90.2269 73.2775 90.3616 73.4432 90.3581C81.9917 90.1787 84.0061 82.4418 83.9376 78.5507Z" fill="#54D1FD" stroke="#54D1FD" stroke-width="0.2"/>
<path d="M84.2312 39.7299V33.7405C84.2312 33.5748 84.0961 33.44 83.9305 33.445C78.7708 33.6001 74.6703 37.7067 73.1895 39.8493C73.1554 39.8986 73.1387 39.9555 73.1387 40.0155V47.452C73.1387 45.4753 80.3076 41.7146 84.0578 40.0023C84.1649 39.9533 84.2312 39.8477 84.2312 39.7299Z" fill="#54D1FD" stroke="#54D1FD" stroke-width="0.2"/>
</svg>
