<svg width="50" height="50" viewBox="0 0 50 50" fill="none" xmlns="http://www.w3.org/2000/svg">
<circle cx="25" cy="25" r="25" fill="#038500" fill-opacity="0.25"/>
<path d="M23.9176 41.2727V8.54545H26.0142V41.2727H23.9176ZM29.4787 19.348C29.3764 18.3168 28.9375 17.5156 28.1619 16.9446C27.3864 16.3736 26.3338 16.0881 25.0043 16.0881C24.1009 16.0881 23.3381 16.2159 22.7159 16.4716C22.0938 16.7188 21.6165 17.0639 21.2841 17.5071C20.9602 17.9503 20.7983 18.4531 20.7983 19.0156C20.7813 19.4844 20.8793 19.8935 21.0923 20.2429C21.3139 20.5923 21.6165 20.8949 22 21.1506C22.3835 21.3977 22.8267 21.6151 23.3295 21.8026C23.8324 21.9815 24.3693 22.1349 24.9403 22.2628L27.2926 22.8253C28.4347 23.081 29.483 23.4219 30.4375 23.848C31.392 24.2741 32.2188 24.7983 32.9176 25.4205C33.6165 26.0426 34.1577 26.7756 34.5412 27.6193C34.9332 28.4631 35.1335 29.4304 35.142 30.5213C35.1335 32.1236 34.7244 33.5128 33.9148 34.6889C33.1136 35.8565 31.9545 36.7642 30.4375 37.4119C28.929 38.0511 27.1094 38.3707 24.9787 38.3707C22.8651 38.3707 21.0241 38.0469 19.456 37.3991C17.8963 36.7514 16.6776 35.7926 15.7997 34.5227C14.9304 33.2443 14.4744 31.6634 14.4318 29.7798H19.7884C19.848 30.6577 20.0994 31.3906 20.5426 31.9787C20.9943 32.5582 21.5952 32.9972 22.3452 33.2955C23.1037 33.5852 23.9602 33.7301 24.9148 33.7301C25.8523 33.7301 26.6662 33.5937 27.3565 33.321C28.0554 33.0483 28.5966 32.669 28.9801 32.1832C29.3636 31.6974 29.5554 31.1392 29.5554 30.5085C29.5554 29.9205 29.3807 29.4261 29.0312 29.0256C28.6903 28.625 28.1875 28.2841 27.5227 28.0028C26.8665 27.7216 26.0611 27.4659 25.1065 27.2358L22.2557 26.5199C20.0483 25.983 18.3054 25.1435 17.027 24.0014C15.7486 22.8594 15.1136 21.321 15.1222 19.3864C15.1136 17.8011 15.5355 16.4162 16.3878 15.2315C17.2486 14.0469 18.429 13.1222 19.929 12.4574C21.429 11.7926 23.1335 11.4602 25.0426 11.4602C26.9858 11.4602 28.6818 11.7926 30.1307 12.4574C31.5881 13.1222 32.7216 14.0469 33.5312 15.2315C34.3409 16.4162 34.7585 17.7884 34.7841 19.348H29.4787Z" fill="#038500"/>
</svg>
