<svg width="50" height="50" viewBox="0 0 50 50" fill="none" xmlns="http://www.w3.org/2000/svg">
<circle cx="25" cy="25" r="25" fill="#B40000" fill-opacity="0.25"/>
<path d="M31.6591 6C29.558 6 27.7453 7.44194 26.6329 9.62546C28.4868 11.8502 29.5992 14.8988 29.5992 18.4007C29.5992 19.5955 29.4756 20.6666 29.2284 21.7378C30.0112 22.191 30.7939 22.5205 31.6591 22.5205C35.0786 22.5205 37.8389 18.8127 37.8389 14.2809C37.8389 9.74905 35.0786 6.0412 31.6591 6.0412V6ZM19.2996 10.1198C15.8801 10.1198 13.1198 13.8277 13.1198 18.3595C13.1198 22.8913 15.8801 26.5992 19.2996 26.5992C22.7191 26.5992 25.4793 22.8913 25.4793 18.3595C25.4793 13.8277 22.7191 10.1198 19.2996 10.1198ZM38.8688 23.1385C37.0973 25.2396 34.6666 26.5168 31.9063 26.5992C33.0186 28.1647 33.719 30.0598 33.719 32.1198V34.8389H41.9587V27.9999C41.9587 25.8576 40.6815 24.0037 38.8688 23.0973V23.1385ZM12.0899 27.2584C10.2771 28.1647 9 30.0186 9 32.161V38.9999H29.5992V32.161C29.5992 30.0186 28.322 28.1647 26.5093 27.2584C24.6554 29.4419 22.1423 30.719 19.2996 30.719C16.4569 30.719 13.9438 29.4007 12.0899 27.2584Z" fill="#B40000"/>
</svg>
