<svg width="598" height="652" viewBox="0 0 598 652" fill="none" xmlns="http://www.w3.org/2000/svg">
<g filter="url(#filter0_d_365_123409)">
<path d="M68.8883 59.9592L77.2374 170.015H48.3542L56.0907 85.6873C56.8728 81.0561 58.6858 74.1912 61.5433 68.5515C62.9833 65.7093 64.6112 63.3342 66.3753 61.7038C67.2126 60.93 68.0482 60.3512 68.8883 59.9592Z" fill="#CCCCCC" stroke="black" stroke-width="6"/>
<path d="M510.514 59.9592L502.165 170.015H531.048L523.312 85.6873C522.53 81.0561 520.717 74.1912 517.859 68.5515C516.419 65.7093 514.791 63.3342 513.027 61.7038C512.19 60.93 511.354 60.3512 510.514 59.9592Z" fill="#CCCCCC" stroke="black" stroke-width="6"/>
<rect x="27.1406" y="159.113" width="72.8614" height="148.504" rx="21.5" fill="#2E72D2" stroke="black" stroke-width="6"/>
<rect x="479.387" y="159.113" width="72.8614" height="148.504" rx="21.5" fill="#2E72D2" stroke="black" stroke-width="6"/>
<path d="M143.191 464.543C125.612 483.095 105.358 495.578 86.9443 500.862C68.4549 506.168 52.4139 504.098 42.3684 494.579C32.3228 485.06 29.3934 469.154 33.6971 450.406C37.9831 431.735 49.3585 410.839 66.9378 392.287C84.5171 373.735 104.771 361.252 123.184 355.968C141.674 350.662 157.715 352.732 167.76 362.251C177.806 371.77 180.735 387.676 176.431 406.424C172.145 425.095 160.77 445.991 143.191 464.543Z" fill="#2E72D2" stroke="black" stroke-width="6"/>
<path d="M531.062 408.213C513.483 426.765 493.229 439.248 474.815 444.532C456.326 449.838 440.285 447.768 430.239 438.249C420.194 428.73 417.264 412.824 421.568 394.076C425.854 375.405 437.23 354.509 454.809 335.957C472.388 317.405 492.642 304.922 511.055 299.638C529.545 294.332 545.586 296.402 555.631 305.921C565.677 315.44 568.606 331.346 564.303 350.094C560.017 368.765 548.641 389.661 531.062 408.213Z" fill="#2E72D2" stroke="black" stroke-width="6"/>
<path d="M457.298 414.424C457.298 530.317 382.387 623.063 291.309 623.063C200.231 623.063 125.32 530.317 125.32 414.424C125.32 298.532 200.231 205.786 291.309 205.786C382.387 205.786 457.298 298.532 457.298 414.424Z" fill="#2E72D2" stroke="black" stroke-width="6"/>
<rect x="223.5" y="3" width="134.019" height="50.3296" rx="14.5" fill="#2E72D2" stroke="black" stroke-width="6"/>
<path d="M513.621 211.637C513.621 312.111 413.953 394.524 289.693 394.524C165.434 394.524 65.7656 312.111 65.7656 211.637C65.7656 111.162 165.434 28.749 289.693 28.749C413.953 28.749 513.621 111.162 513.621 211.637Z" fill="#2E72D2" stroke="black" stroke-width="6"/>
<path d="M335.713 322.257C330.519 320.526 322.087 319.365 313.922 318.596C305.81 317.831 297.642 317.426 292.472 317.283C289.389 316.646 285.706 316.619 281.672 316.92C277.475 317.234 272.697 317.921 267.505 318.787C263.987 319.373 260.283 320.04 256.409 320.737C248.742 322.116 240.412 323.615 231.549 324.848C204.935 328.55 174.658 329.654 147.692 317.538C120.492 305.318 107.52 290.571 101.516 273.32C95.4136 255.788 96.3369 235.293 97.9542 211.034C101.023 165.005 160.936 97.1618 292.078 98.7611C357.721 99.5616 400.498 112.57 429.093 132.812C457.631 153.015 472.424 180.693 481.562 211.683C490.551 242.167 484.094 265.8 472.582 283.213C460.993 300.743 444.184 312.092 432.474 317.556C426.848 320.182 418.751 322.094 409.384 323.376C400.068 324.65 389.708 325.273 379.682 325.423C369.66 325.572 360.02 325.248 352.158 324.639C344.181 324.022 338.338 323.132 335.713 322.257Z" fill="#F0F0F0" stroke="black" stroke-width="6"/>
<path d="M173.016 238.998C175.698 231.487 185.569 216.466 203.595 216.466C221.62 216.466 234.71 231.487 239.002 238.998" stroke="black" stroke-width="10"/>
<path d="M403.965 239.803C401.282 232.293 391.411 217.271 373.386 217.271C355.36 217.271 342.271 232.293 337.979 239.803" stroke="black" stroke-width="10"/>
<path d="M361.014 512.944C353.017 530.169 339.287 540.994 325.212 547.538C311.101 554.099 296.812 556.271 288.093 556.271C269.925 556.271 254.52 549.091 242.574 539.986C230.64 530.891 222.312 519.989 218.33 512.821C209.958 495.668 205.302 482.757 203.213 472.98C201.119 463.18 201.656 456.771 203.37 452.444C205.049 448.205 208.008 445.582 211.65 443.638C214.516 442.107 217.585 441.092 220.761 440.042C221.798 439.699 222.846 439.352 223.902 438.982C225.593 438.39 228.69 437.779 233.077 437.212C237.394 436.653 242.757 436.162 248.852 435.749C261.037 434.924 276.038 434.423 291.231 434.322C306.425 434.222 321.77 434.523 334.648 435.298C347.659 436.08 357.785 437.33 362.786 438.997C367.678 440.627 371.093 443.216 373.318 446.685C375.568 450.193 376.776 454.877 376.729 460.973C376.633 473.274 371.44 490.489 361.014 512.944Z" fill="#F0F0F0" stroke="black" stroke-width="6"/>
</g>
<defs>
<filter id="filter0_d_365_123409" x="24.1406" y="0" width="560.082" height="651.063" filterUnits="userSpaceOnUse" color-interpolation-filters="sRGB">
<feFlood flood-opacity="0" result="BackgroundImageFix"/>
<feColorMatrix in="SourceAlpha" type="matrix" values="0 0 0 0 0 0 0 0 0 0 0 0 0 0 0 0 0 0 127 0" result="hardAlpha"/>
<feOffset dx="10" dy="20"/>
<feGaussianBlur stdDeviation="2.5"/>
<feComposite in2="hardAlpha" operator="out"/>
<feColorMatrix type="matrix" values="0 0 0 0 0 0 0 0 0 0 0 0 0 0 0 0 0 0 0.25 0"/>
<feBlend mode="normal" in2="BackgroundImageFix" result="effect1_dropShadow_365_123409"/>
<feBlend mode="normal" in="SourceGraphic" in2="effect1_dropShadow_365_123409" result="shape"/>
</filter>
</defs>
</svg>
