<svg width="50" height="50" viewBox="0 0 50 50" fill="none" xmlns="http://www.w3.org/2000/svg">
<circle cx="25" cy="25" r="25" fill="#154B89" fill-opacity="0.25"/>
<path d="M30.0465 6.01252C29.1519 6.10669 28.3044 6.71878 27.8335 7.61337C27.2214 8.83755 22.7014 17.9247 21.8068 18.8193C20.9122 19.7139 19.7351 20.1377 18.4168 20.1377V38.9712H34.8961C35.8849 38.9712 36.7324 38.3591 37.1091 37.5116C37.1091 37.5116 41.9587 23.8102 41.9587 22.4919C41.9587 21.1735 40.9228 20.1377 39.6045 20.1377H32.5419C31.2236 20.1377 30.1877 18.9606 30.1877 17.7835C30.1877 16.6064 32.024 10.3442 32.4007 9.12006C32.7773 7.89588 32.1652 6.57753 30.9411 6.15378C30.6115 6.05961 30.3761 5.96544 30.0465 6.01252ZM9 20.1377V38.9712H13.7084V20.1377H9Z" fill="#154B89"/>
</svg>
